<?xml version="1.0" encoding="UTF-8" standalone="no"?>
<svg
   viewBox="0 0 448 512"
   version="1.1"
   id="svg3039"
   sodipodi:docname="fa6_utensils_solid_dark.svg"
   inkscape:version="1.2.2 (732a01da63, 2022-12-09)"
   xmlns:inkscape="http://www.inkscape.org/namespaces/inkscape"
   xmlns:sodipodi="http://sodipodi.sourceforge.net/DTD/sodipodi-0.dtd"
   xmlns="http://www.w3.org/2000/svg"
   xmlns:svg="http://www.w3.org/2000/svg">
  <defs
     id="defs3043" />
  <sodipodi:namedview
     id="namedview3041"
     pagecolor="#ffffff"
     bordercolor="#000000"
     borderopacity="0.25"
     inkscape:showpageshadow="2"
     inkscape:pageopacity="0.0"
     inkscape:pagecheckerboard="0"
     inkscape:deskcolor="#d1d1d1"
     showgrid="false"
     inkscape:zoom="1.9570312"
     inkscape:cx="29.381238"
     inkscape:cy="256.00001"
     inkscape:window-width="2560"
     inkscape:window-height="1369"
     inkscape:window-x="1912"
     inkscape:window-y="-8"
     inkscape:window-maximized="1"
     inkscape:current-layer="svg3039" />
  <!--!Font Awesome Free 6.6.0 by @fontawesome - https://fontawesome.com License - https://fontawesome.com/license/free Copyright 2024 Fonticons, Inc.-->
  <path
     d="M416 0C400 0 288 32 288 176l0 112c0 35.3 28.7 64 64 64l32 0 0 128c0 17.7 14.3 32 32 32s32-14.3 32-32l0-128 0-112 0-208c0-17.7-14.3-32-32-32zM64 16C64 7.8 57.9 1 49.7 .1S34.2 4.6 32.4 12.5L2.1 148.8C.7 155.1 0 161.5 0 167.9c0 45.9 35.1 83.6 80 87.7L80 480c0 17.7 14.3 32 32 32s32-14.3 32-32l0-224.4c44.9-4.1 80-41.8 80-87.7c0-6.4-.7-12.8-2.1-19.1L191.6 12.5c-1.8-8-9.3-13.3-17.4-12.4S160 7.8 160 16l0 134.2c0 5.4-4.4 9.8-9.8 9.8c-5.1 0-9.3-3.9-9.8-9L127.9 14.6C127.2 6.3 120.3 0 112 0s-15.2 6.3-15.9 14.6L83.7 151c-.5 5.1-4.7 9-9.8 9c-5.4 0-9.8-4.4-9.8-9.8L64 16zm48.3 152l-.3 0-.3 0 .3-.7 .3 .7z"
     id="path3037"
     style="fill:#000000" />
</svg>
